PathFileType	4	(X/Y/Z)	Patient4_TMGait_0pt6_01_right_42.trc.trc
DataRate	CameraRate	NumFrames	NumMarkers	Units	OrigDataRate	OrigDataStartFrame	OrigNumFrames
82.840236686390	82.840236686390	4	33	mm	82.840236686390	106	       141
Frame#	Time	Sacral			L.Shoulder			Chest			R.Shoulder			Neck			R.ASIS			L.ASIS			R.Thigh.Superior			R.Thigh.Lateral			R.Thigh.Inferior			R.Patella			L.Thigh.Superior			L.Thigh.Lateral			L.Thigh.Inferior			L.Patella			L.Shank.Superior			L.Shank.Lateral			L.Shank.Inferior			R.Shank.Superior			R.Shank.Lateral			R.Shank.Inferior			R.Heel			R.Midfoot.Superior			R.Midfoot.Lateral			R.Toe			L.Heel			L.Midfoot.Lateral			L.Midfoot.Superior			L.Toe			L.Elbow			L.Wrist			R.Elbow			R.Wrist			
		X1	Y1	Z1	X2	Y2	Z2	X3	Y3	Z3	X4	Y4	Z4	X5	Y5	Z5	X6	Y6	Z6	X7	Y7	Z7	X8	Y8	Z8	X9	Y9	Z9	X10	Y10	Z10	X11	Y11	Z11	X12	Y12	Z12	X13	Y13	Z13	X14	Y14	Z14	X15	Y15	Z15	X16	Y16	Z16	X17	Y17	Z17	X18	Y18	Z18	X19	Y19	Z19	X20	Y20	Z20	X21	Y21	Z21	X22	Y22	Z22	X23	Y23	Z23	X24	Y24	Z24	X25	Y25	Z25	X26	Y26	Z26	X27	Y27	Z27	X28	Y28	Z28	X29	Y29	Z29	X30	Y30	Z30	X31	Y31	Z31	X32	Y32	Z32	X33	Y33	Z33	

106	51.777500000000	759.276386470316	1007.926387022316	412.441638166929	943.708700598581	1439.004971179026	235.948659823878	1037.102168141792	1368.896495722038	401.536063126799	945.883700778560	1438.758649657902	571.445719004222	923.142841314818	1499.545346249228	389.483148658593	984.750031636681	953.676040988036	534.828835922774	979.105311569540	966.022311663890	260.891733330398	1088.928175217649	806.107243542652	494.911765175156	1074.913055588255	683.026970385369	571.240791432637	1164.284540802744	657.759441244542	484.770246792592	1204.372193136660	547.350607738938	505.369030536535	1018.535546224630	748.114933500322	297.032249038312	924.434499612394	636.500942015209	236.854401575734	998.475446692886	555.132327788715	307.008918646029	992.574603078149	486.416131066086	318.570468131982	965.605258819379	415.425150853231	310.383555104242	873.551828281867	301.900408690578	263.354507948440	922.177619312056	192.146914245059	337.816055956714	1138.001100469130	462.390733923517	516.904134196489	1026.389189273835	407.950690832482	583.685962097641	1021.978232477406	298.795997194910	535.254389228246	828.899821255544	209.644088300943	515.157665589332	1005.548106446930	180.855842249619	557.155761987414	897.691800834805	168.689429052713	593.032966244019	1085.549193088884	81.607511950104	593.827144234311	791.799001409396	38.040828737434	387.958777559326	860.419697567440	34.946424624863	302.319839940330	944.741565739228	96.535178615003	324.179663604013	1071.191775458609	46.770684638469	287.238832272307	1008.081933223264	1098.543958546462	99.077315627580	1210.699745569863	933.201923046493	109.793544523365	880.314821369268	1091.738736235547	681.228057646364	927.805990293925	835.404154668926	700.080687699478	
107	51.789571428571	759.294316932361	1007.994999818704	411.830485230645	944.792955631533	1439.577847199209	236.933706749523	1037.366452346073	1368.776180931519	402.680632311173	945.470772598134	1438.166550369501	572.420857751927	924.120051870148	1499.584811670204	390.590356511227	984.248372375891	953.829659232091	534.923836017101	979.560283623454	966.137486821994	260.911047751685	1088.772364355393	807.216598132959	495.240990595199	1075.202750949876	684.113673418355	572.114320597065	1164.676575242662	659.139313019927	485.780070569722	1206.065139674139	550.418902624171	506.666024311287	1016.796962020656	747.062347431025	297.326236010882	921.431786735887	636.322798676296	236.716111613731	994.166992908344	554.163178081609	307.117843519367	987.552210316174	485.675556404077	318.610832632624	960.262577938756	414.877541262128	310.420701782211	867.657074433045	301.846671471247	263.282044025117	915.452290584106	191.865405669125	337.895272638719	1143.200219806930	463.782712390577	518.247933954751	1034.685044378091	403.946302761022	585.196317137681	1035.679792259628	294.647144729275	536.725077502708	847.313258288315	196.603688691675	516.798716893699	1025.048354739153	175.497867105223	558.600686154497	917.936641905704	158.243594255434	594.470424318427	1109.407956761140	79.670811686027	594.601091689245	784.495264631968	38.079177580323	387.910014384589	853.112095892252	34.936323903706	302.321433492217	937.478122706249	96.490523358032	324.217833408852	1063.899937679780	46.657981962645	287.242050526155	1010.814948632022	1100.387248228106	98.597488660765	1221.078486374837	945.006032058984	110.839132312456	871.789624906965	1093.474545299685	681.931196158644	902.808941647996	834.979125350025	704.467893722495	
108	51.801642857143	759.423941439678	1008.081697314206	411.307197964685	946.002296404355	1440.055740254555	237.973551260669	1037.806947613841	1368.577868040473	403.852193834488	945.311387968451	1437.618312658783	573.420118743964	925.243502850248	1499.565041887217	391.726976947301	983.838562368608	953.848288497593	535.106525355829	980.042932974273	966.145719757774	261.032445569330	1088.390504958784	807.768966768759	495.826212918760	1074.787027672531	684.590480718421	573.182877960103	1164.422605849803	659.729213646329	487.159262160287	1206.823251768444	552.817190451365	508.317392960134	1015.028514471859	745.970133253192	297.737480453906	918.392785173596	636.138088590568	236.641539124779	989.801946356698	553.191100137496	307.247448303389	982.453540063629	484.942159478077	318.655221253862	954.862062743582	414.352017434433	310.473991853025	861.727650159343	301.808612229213	263.215534682970	908.695070406432	191.596885380280	337.975371932254	1147.657903985750	464.698079330035	519.805763896574	1042.638513779482	399.328483684783	586.817708851471	1049.356252341298	290.222006244304	538.207862423385	866.483989169122	183.019816782777	518.218945595480	1044.915227808523	170.144931994897	559.959602954917	938.851442752566	147.509955342332	595.719155634211	1133.687007875486	78.231903523404	595.277044938943	777.204112758747	38.145713150459	387.851173663790	845.809527091286	34.937096112261	302.320865883864	930.230780922894	96.444051211397	324.247306737275	1056.612666006295	46.512388953347	287.239836644465	1013.255116516252	1102.001152322255	98.329870959989	1230.525077291754	956.872475389816	112.236053013779	863.224526090235	1095.707337973792	682.815907417277	879.278650023069	836.285165824329	708.116782333759	
109	51.813714285714	759.668704259999	1008.153168420751	410.884806217895	947.336236050523	1440.420512556216	239.058025202398	1038.416803909822	1368.289689735220	405.047915070594	945.392576214892	1437.107215108227	574.436864557765	926.508151078894	1499.475220776444	392.879081522182	983.537982636971	953.737892427155	535.405749674937	980.560858918458	966.030940002943	261.271820909917	1087.791654990591	807.729217389374	496.665133560373	1073.670205957528	684.419094430047	574.412465019451	1163.508056873159	659.502079847917	488.850656115657	1206.643440994646	554.507027755046	510.231978879410	1013.250463525265	744.839691832068	298.269202448784	915.354044681352	635.942149487045	236.639276990249	985.427384947976	552.217858779762	307.405261492052	977.331593139372	484.213169690074	318.716085504930	949.445885514495	413.840834547430	310.554133879921	855.799979405602	301.790369825503	263.161749584545	901.929061741271	191.337687003536	338.060623514637	1151.334905282155	465.129423557157	521.519139587189	1050.221317651387	394.185608319426	588.528781390613	1062.887272041196	285.635370929603	539.686376464080	886.289247259077	169.122876207307	519.457975294082	1064.976788112063	164.975851891298	561.223235804384	960.304425992439	136.730846004822	596.802776509621	1158.155957257600	77.479811729602	595.855680660840	769.927972432578	38.242505132478	387.787139369351	838.514593018924	34.952885250678	302.320194564059	923.004214456788	96.395152067633	324.271390626397	1049.332745769482	46.326904134972	287.233886320010	1015.443122075587	1103.359906104586	98.274705891027	1239.032170848284	968.673024186924	113.956593281352	854.644143497721	1098.409391446432	683.839886798538	857.347570446422	838.974814114858	711.087680277318	
